<svg width="113" height="55" viewBox="0 0 113 55" fill="none" xmlns="http://www.w3.org/2000/svg">
<g filter="url(#filter0_d_2_11)">
<path d="M9.41016 10.2865L10.1888 9.65908L9.88861 9.28653H9.41016V10.2865ZM7.33594 10.2865V9.28653H6.33594V10.2865H7.33594ZM7.33594 17.9506V18.9506H8.33594V17.9506H7.33594ZM5.08594 17.9506H4.08594V18.9506H5.08594V17.9506ZM5.08594 0.888092V-0.111908H4.08594V0.888092H5.08594ZM7.33594 0.888092H8.33594V-0.111908H7.33594V0.888092ZM7.33594 8.41153H6.33594V9.41153H7.33594V8.41153ZM9.09375 8.41153V9.41153H9.57708L9.87735 9.03279L9.09375 8.41153ZM15.0586 0.888092V-0.111908H14.5753L14.275 0.266827L15.0586 0.888092ZM17.8594 0.888092L18.645 1.5068L19.9198 -0.111908H17.8594V0.888092ZM11.3438 9.16153L10.5581 8.54282L10.0683 9.16485L10.5614 9.78431L11.3438 9.16153ZM18.3398 17.9506V18.9506H20.414L19.1222 17.3278L18.3398 17.9506ZM15.5859 17.9506L14.8073 18.578L15.1075 18.9506H15.5859V17.9506ZM9.41016 9.28653H7.33594V11.2865H9.41016V9.28653ZM6.33594 10.2865V17.9506H8.33594V10.2865H6.33594ZM7.33594 16.9506H5.08594V18.9506H7.33594V16.9506ZM6.08594 17.9506V0.888092H4.08594V17.9506H6.08594ZM5.08594 1.88809H7.33594V-0.111908H5.08594V1.88809ZM6.33594 0.888092V8.41153H8.33594V0.888092H6.33594ZM7.33594 9.41153H9.09375V7.41153H7.33594V9.41153ZM9.87735 9.03279L15.8422 1.50936L14.275 0.266827L8.31015 7.79026L9.87735 9.03279ZM15.0586 1.88809H17.8594V-0.111908H15.0586V1.88809ZM17.0738 0.269386L10.5581 8.54282L12.1294 9.78024L18.645 1.5068L17.0738 0.269386ZM10.5614 9.78431L17.5575 18.5734L19.1222 17.3278L12.1261 8.53874L10.5614 9.78431ZM18.3398 16.9506H15.5859V18.9506H18.3398V16.9506ZM16.3646 17.3231L10.1888 9.65908L8.6315 10.914L14.8073 18.578L16.3646 17.3231ZM21.9492 16.7201L22.691 16.0495L20.9492 14.1227V16.7201H21.9492ZM21.9492 22.8256V23.8256H22.9492V22.8256H21.9492ZM19.7812 22.8256H18.7812V23.8256H19.7812V22.8256ZM19.7812 5.2709V4.2709H18.7812V5.2709H19.7812ZM21.7617 5.2709L22.7589 5.19611L22.6895 4.2709H21.7617V5.2709ZM21.8672 6.67715L20.87 6.75194L21.0589 9.27073L22.6453 7.30523L21.8672 6.67715ZM29.1562 6.75919L28.3634 7.36864L28.366 7.37201L29.1562 6.75919ZM21.9492 8.62247L21.0781 8.13137L20.9492 8.36001V8.62247H21.9492ZM21.9492 14.6811H20.9492V14.9423L21.077 15.1702L21.9492 14.6811ZM27.3984 15.185L26.5966 14.5874L26.5957 14.5886L27.3984 15.185ZM29.4922 11.7514C29.4922 13.5319 29.0857 14.8563 28.3673 15.8163L29.9686 17.0146C31.0158 15.6152 31.4922 13.8302 31.4922 11.7514H29.4922ZM28.3673 15.8163C27.6785 16.7368 26.7834 17.185 25.582 17.185V19.185C27.3963 19.185 28.8919 18.4534 29.9686 17.0146L28.3673 15.8163ZM25.582 17.185C24.2732 17.185 23.3517 16.7804 22.691 16.0495L21.2074 17.3907C22.3123 18.613 23.8127 19.185 25.582 19.185V17.185ZM20.9492 16.7201V22.8256H22.9492V16.7201H20.9492ZM21.9492 21.8256H19.7812V23.8256H21.9492V21.8256ZM20.7812 22.8256V5.2709H18.7812V22.8256H20.7812ZM19.7812 6.2709H21.7617V4.2709H19.7812V6.2709ZM20.7645 5.34569L20.87 6.75194L22.8644 6.60236L22.7589 5.19611L20.7645 5.34569ZM22.6453 7.30523C23.3144 6.47626 24.2387 6.03653 25.5469 6.03653V4.03653C23.7145 4.03653 22.1856 4.69055 21.089 6.04908L22.6453 7.30523ZM25.5469 6.03653C26.7784 6.03653 27.681 6.48088 28.3634 7.36864L29.9491 6.14974C28.8659 4.74062 27.3622 4.03653 25.5469 4.03653V6.03653ZM28.366 7.37201C29.0749 8.28603 29.4922 9.63858 29.4922 11.5522H31.4922C31.4922 9.37198 31.0189 7.52921 29.9465 6.14636L28.366 7.37201ZM29.4922 11.5522V11.7514H31.4922V11.5522H29.4922ZM29.3242 11.5053C29.3242 9.94362 28.9923 8.58135 28.2156 7.52588L26.6047 8.71124C27.0468 9.31202 27.3242 10.2076 27.3242 11.5053H29.3242ZM28.2156 7.52588C27.4105 6.43174 26.2703 5.87637 24.9023 5.87637V7.87637C25.6594 7.87637 26.1911 8.14913 26.6047 8.71124L28.2156 7.52588ZM24.9023 5.87637C23.2208 5.87637 21.9076 6.65999 21.0781 8.13137L22.8203 9.11356C23.3033 8.25681 23.9588 7.87637 24.9023 7.87637V5.87637ZM20.9492 8.62247V14.6811H22.9492V8.62247H20.9492ZM21.077 15.1702C21.4748 15.8796 22.0035 16.4539 22.6762 16.8459C23.3486 17.2376 24.1102 17.4154 24.9258 17.4154V15.4154C24.4055 15.4154 24.003 15.3042 23.6831 15.1178C23.3637 14.9317 23.072 14.6388 22.8214 14.1919L21.077 15.1702ZM24.9258 17.4154C26.2749 17.4154 27.3994 16.8606 28.2012 15.7813L26.5957 14.5886C26.1787 15.15 25.6548 15.4154 24.9258 15.4154V17.4154ZM28.2002 15.7825C29.0011 14.708 29.3242 13.2306 29.3242 11.5053H27.3242C27.3242 13.03 27.0302 14.0057 26.5966 14.5874L28.2002 15.7825ZM37.2656 14.7748L36.3168 15.0907L37.2985 18.0392L38.2206 15.0715L37.2656 14.7748ZM40.2188 5.2709V4.2709H39.4823L39.2638 4.97417L40.2188 5.2709ZM42.5391 5.2709L43.4834 5.59981L43.9463 4.2709H42.5391V5.2709ZM37.4414 19.9076L38.378 20.258L38.382 20.2473L38.3858 20.2365L37.4414 19.9076ZM33.6797 23.0717L33.5943 24.068L33.6369 24.0717H33.6797V23.0717ZM33.2695 23.0365L33.0844 24.0192L33.1339 24.0286L33.1841 24.0329L33.2695 23.0365ZM32.4609 22.8842H31.4609V23.7134L32.2758 23.8669L32.4609 22.8842ZM32.4609 21.1264L32.5407 20.1296L31.4609 20.0432V21.1264H32.4609ZM33.0469 21.1732L32.9671 22.1701L33.0069 22.1732H33.0469V21.1732ZM34.7578 20.7279L34.1751 19.9152L34.1678 19.9205L34.7578 20.7279ZM35.7773 19.099L34.8403 18.7498L34.8347 18.7648L34.8296 18.78L35.7773 19.099ZM36.2578 17.81L37.1948 18.1592L37.3229 17.8156L37.1985 17.4706L36.2578 17.81ZM31.7344 5.2709V4.2709H30.3105L30.7937 5.61025L31.7344 5.2709ZM34.1016 5.2709L35.0504 4.95503L34.8226 4.2709H34.1016V5.2709ZM38.2206 15.0715L41.1737 5.56764L39.2638 4.97417L36.3107 14.4781L38.2206 15.0715ZM40.2188 6.2709H42.5391V4.2709H40.2188V6.2709ZM41.5947 4.942L36.497 19.5787L38.3858 20.2365L43.4834 5.59981L41.5947 4.942ZM36.5048 19.5573C36.149 20.5084 35.7205 21.1327 35.2655 21.5154C34.8281 21.8833 34.3161 22.0717 33.6797 22.0717V24.0717C34.7621 24.0717 35.7363 23.7328 36.5529 23.046C37.3518 22.374 37.9447 21.4163 38.378 20.258L36.5048 19.5573ZM33.7651 22.0753L33.3549 22.0402L33.1841 24.0329L33.5943 24.068L33.7651 22.0753ZM33.4547 22.0538L32.6461 21.9015L32.2758 23.8669L33.0844 24.0192L33.4547 22.0538ZM33.4609 22.8842V21.1264H31.4609V22.8842H33.4609ZM32.3812 22.1232L32.9671 22.1701L33.1266 20.1764L32.5407 20.1296L32.3812 22.1232ZM33.0469 22.1732C33.9 22.1732 34.7078 22.003 35.3478 21.5353L34.1678 19.9205C33.9953 20.0466 33.6625 20.1732 33.0469 20.1732V22.1732ZM35.3405 21.5406C36.0026 21.066 36.4313 20.2907 36.7251 19.4181L34.8296 18.78C34.5921 19.4854 34.3412 19.7962 34.1751 19.9152L35.3405 21.5406ZM36.7144 19.4483L37.1948 18.1592L35.3208 17.4607L34.8403 18.7498L36.7144 19.4483ZM37.1985 17.4706L32.675 4.93156L30.7937 5.61025L35.3172 18.1493L37.1985 17.4706ZM31.7344 6.2709H34.1016V4.2709H31.7344V6.2709ZM33.1528 5.58678L36.3168 15.0907L38.2144 14.4589L35.0504 4.95503L33.1528 5.58678ZM53.9062 7.02872V8.02872H54.9062V7.02872H53.9062ZM49.6523 7.02872V6.02872H48.6523V7.02872H49.6523ZM49.6523 17.9506V18.9506H50.6523V17.9506H49.6523ZM47.4844 17.9506H46.4844V18.9506H47.4844V17.9506ZM47.4844 7.02872H48.4844V6.02872H47.4844V7.02872ZM43.3125 7.02872H42.3125V8.02872H43.3125V7.02872ZM43.3125 5.2709V4.2709H42.3125V5.2709H43.3125ZM53.9062 5.2709H54.9062V4.2709H53.9062V5.2709ZM53.9062 6.02872H49.6523V8.02872H53.9062V6.02872ZM48.6523 7.02872V17.9506H50.6523V7.02872H48.6523ZM49.6523 16.9506H47.4844V18.9506H49.6523V16.9506ZM48.4844 17.9506V7.02872H46.4844V17.9506H48.4844ZM47.4844 6.02872H43.3125V8.02872H47.4844V6.02872ZM44.3125 7.02872V5.2709H42.3125V7.02872H44.3125ZM43.3125 6.2709H53.9062V4.2709H43.3125V6.2709ZM52.9062 5.2709V7.02872H54.9062V5.2709H52.9062ZM55.6758 8.142L54.7799 7.6976L54.7771 7.7033L55.6758 8.142ZM57.7148 5.84512L57.1903 4.99372L57.1869 4.99584L57.7148 5.84512ZM64.8867 6.8295L64.1393 7.49387L64.1417 7.49658L64.8867 6.8295ZM65.7773 15.0795L64.8773 14.6437L64.8758 14.6468L65.7773 15.0795ZM63.75 17.3647L63.2234 16.5145L63.22 16.5167L63.75 17.3647ZM56.543 16.392L55.7956 17.0564L55.798 17.0591L56.543 16.392ZM58.1016 15.1381L57.306 15.7439L57.3095 15.7485L58.1016 15.1381ZM63.3516 15.1264L64.1498 15.7287L64.1524 15.7252L63.3516 15.1264ZM63.3281 8.11856L62.5307 8.72203L62.5368 8.73001L63.3281 8.11856ZM55.9492 11.4936C55.9492 10.3843 56.1647 9.42003 56.5744 8.5807L54.7771 7.7033C54.2182 8.84834 53.9492 10.1185 53.9492 11.4936H55.9492ZM56.5716 8.58639C56.9884 7.7461 57.5468 7.12704 58.2428 6.69441L57.1869 4.99584C56.1485 5.64133 55.3475 6.55352 54.7799 7.69761L56.5716 8.58639ZM58.2394 6.69652C58.943 6.26302 59.7545 6.03653 60.7031 6.03653V4.03653C59.4174 4.03653 58.2367 4.3491 57.1903 4.99373L58.2394 6.69652ZM60.7031 6.03653C62.1696 6.03653 63.2829 6.53045 64.1393 7.49386L65.6341 6.16513C64.3655 4.73792 62.6897 4.03653 60.7031 4.03653V6.03653ZM64.1417 7.49658C65.0114 8.46777 65.4922 9.80005 65.4922 11.599H67.4922C67.4922 9.42926 66.9027 7.58185 65.6317 6.16242L64.1417 7.49658ZM65.4922 11.599V11.7514H67.4922V11.599H65.4922ZM65.4922 11.7514C65.4922 12.8544 65.2801 13.8118 64.8773 14.6438L66.6774 15.5152C67.2278 14.3785 67.4922 13.1171 67.4922 11.7514H65.4922ZM64.8758 14.6468C64.4859 15.4591 63.9368 16.0726 63.2234 16.5145L64.2766 18.2148C65.3289 17.5629 66.1313 16.653 66.6789 15.5122L64.8758 14.6468ZM63.22 16.5167C62.5204 16.9539 61.7002 17.185 60.7266 17.185V19.185C62.0342 19.185 63.2296 18.8692 64.28 18.2127L63.22 16.5167ZM60.7266 17.185C59.2694 17.185 58.1539 16.6919 57.288 15.7249L55.798 17.0591C57.0727 18.4827 58.7463 19.185 60.7266 19.185V17.185ZM57.2904 15.7276C56.4259 14.7551 55.9492 13.4288 55.9492 11.6459H53.9492C53.9492 13.8005 54.535 15.6382 55.7956 17.0564L57.2904 15.7276ZM55.9492 11.6459V11.4936H53.9492V11.6459H55.9492ZM56.1289 11.7514C56.1289 13.3078 56.4886 14.6705 57.306 15.7439L58.8972 14.5323C58.4176 13.9025 58.1289 13.0074 58.1289 11.7514H56.1289ZM57.3095 15.7485C58.1589 16.8507 59.329 17.4154 60.7266 17.4154V15.4154C59.9367 15.4154 59.3568 15.1286 58.8936 14.5277L57.3095 15.7485ZM60.7266 17.4154C62.1333 17.4154 63.3073 16.8453 64.1498 15.7287L62.5533 14.5241C62.0989 15.1262 61.523 15.4154 60.7266 15.4154V17.4154ZM64.1524 15.7252C64.9756 14.6243 65.3242 13.1732 65.3242 11.4936H63.3242C63.3242 12.9233 63.0244 13.8941 62.5507 14.5275L64.1524 15.7252ZM65.3242 11.4936C65.3242 9.94436 64.9527 8.58548 64.1194 7.50711L62.5368 8.73001C63.0317 9.37039 63.3242 10.2615 63.3242 11.4936H65.3242ZM64.1255 7.51512C63.279 6.39646 62.108 5.81778 60.7031 5.81778V7.81778C61.4858 7.81778 62.0648 8.10628 62.5307 8.722L64.1255 7.51512ZM60.7031 5.81778C59.321 5.81778 58.1658 6.38877 57.3212 7.48471L58.9054 8.70554C59.3733 8.09835 59.9446 7.81778 60.7031 7.81778V5.81778ZM57.3212 7.48471C56.4794 8.57702 56.1289 10.0453 56.1289 11.7514H58.1289C58.1289 10.2856 58.4346 9.31635 58.9054 8.70554L57.3212 7.48471ZM70.2773 16.4975L69.553 17.1869L69.5554 17.1894L70.2773 16.4975ZM69.375 8.20059L68.4764 7.76189L68.4749 7.76484L69.375 8.20059ZM71.3906 5.88028L71.9329 6.72047L71.9348 6.71924L71.3906 5.88028ZM79.418 12.2318V13.2318H80.418V12.2318H79.418ZM70.8281 12.2318V11.2318H69.8028L69.8284 12.2568L70.8281 12.2318ZM71.918 15.267L71.1743 15.9356L71.1814 15.9434L71.918 15.267ZM77.9297 14.7045L78.5441 13.9155L77.7522 13.2988L77.1384 14.0931L77.9297 14.7045ZM79.2539 15.7357L80.0921 16.2812L80.5931 15.5112L79.8683 14.9468L79.2539 15.7357ZM72 7.77872L72.7293 8.46297L72.7334 8.45848L72 7.77872ZM70.8984 10.4506L69.9059 10.3291L69.7685 11.4506H70.8984V10.4506ZM77.25 10.4506V11.4506H78.25V10.4506H77.25ZM77.25 10.2865H78.25V10.2582L78.2484 10.2299L77.25 10.2865ZM76.3594 7.73184L75.6056 8.38899L75.6098 8.39379L76.3594 7.73184ZM74.4727 17.185C72.9955 17.185 71.8684 16.7124 70.9993 15.8056L69.5554 17.1894C70.8425 18.5325 72.5124 19.185 74.4727 19.185V17.185ZM71.0017 15.8081C70.1362 14.8986 69.6602 13.6531 69.6602 11.9623H67.6602C67.6602 14.0528 68.2623 15.8307 69.553 17.1869L71.0017 15.8081ZM69.6602 11.9623V11.5639H67.6602V11.9623H69.6602ZM69.6602 11.5639C69.6602 10.4343 69.8735 9.46585 70.2751 8.63634L68.4749 7.76484C67.9234 8.90409 67.6602 10.1778 67.6602 11.5639H69.6602ZM70.2736 8.63929C70.6846 7.79742 71.2388 7.16846 71.9329 6.72046L70.8483 5.0401C69.8237 5.70147 69.0341 6.61939 68.4764 7.76189L70.2736 8.63929ZM71.9348 6.71924C72.6444 6.259 73.3936 6.03653 74.2031 6.03653V4.03653C72.997 4.03653 71.8713 4.37656 70.8464 5.04132L71.9348 6.71924ZM74.2031 6.03653C75.6095 6.03653 76.5894 6.4868 77.2818 7.3094L78.8119 6.02147C77.6762 4.67219 76.0937 4.03653 74.2031 4.03653V6.03653ZM77.2818 7.3094C77.9909 8.15179 78.418 9.44309 78.418 11.3295H80.418C80.418 9.16903 79.931 7.35096 78.8119 6.02147L77.2818 7.3094ZM78.418 11.3295V12.2318H80.418V11.3295H78.418ZM79.418 11.2318H70.8281V13.2318H79.418V11.2318ZM69.8284 12.2568C69.8644 13.6946 70.289 14.9508 71.1743 15.9355L72.6616 14.5984C72.1563 14.0364 71.8544 13.269 71.8278 12.2069L69.8284 12.2568ZM71.1814 15.9434C72.0818 16.9238 73.2435 17.4154 74.5898 17.4154V15.4154C73.7799 15.4154 73.1604 15.1415 72.6545 14.5906L71.1814 15.9434ZM74.5898 17.4154C75.4909 17.4154 76.3241 17.231 77.0422 16.8086L76.0281 15.0848C75.6837 15.2874 75.22 15.4154 74.5898 15.4154V17.4154ZM77.0422 16.8086C77.6895 16.4279 78.2491 15.9266 78.721 15.3159L77.1384 14.0931C76.8134 14.5137 76.4433 14.8405 76.0281 15.0848L77.0422 16.8086ZM77.3153 15.4935L78.6395 16.5247L79.8683 14.9468L78.5441 13.9155L77.3153 15.4935ZM78.4157 15.1903C77.5568 16.5103 76.2959 17.185 74.4727 17.185V19.185C76.8995 19.185 78.826 18.2268 80.0921 16.2812L78.4157 15.1903ZM74.2031 5.81778C73.0503 5.81778 72.0499 6.25374 71.2666 7.09895L72.7334 8.45848C73.1376 8.02245 73.606 7.81778 74.2031 7.81778V5.81778ZM71.2707 7.09448C70.4901 7.92644 70.0638 9.03942 69.9059 10.3291L71.891 10.5721C72.0144 9.56489 72.3224 8.89662 72.7293 8.46296L71.2707 7.09448ZM70.8984 11.4506H77.25V9.45059H70.8984V11.4506ZM78.25 10.4506V10.2865H76.25V10.4506H78.25ZM78.2484 10.2299C78.1779 8.98729 77.8356 7.89277 77.1089 7.0699L75.6098 8.39379C75.9456 8.77404 76.1971 9.38265 76.2516 10.3432L78.2484 10.2299ZM77.1131 7.07471C76.3677 6.21967 75.3593 5.81778 74.2031 5.81778V7.81778C74.8595 7.81778 75.2885 8.02526 75.6056 8.38898L77.1131 7.07471ZM15 45.9506V46.9506H16V45.9506H15ZM12.832 45.9506H11.832V46.9506H12.832V45.9506ZM12.832 40.5365H13.832V39.5365H12.832V40.5365ZM7.00781 40.5365V39.5365H6.00781V40.5365H7.00781ZM7.00781 45.9506V46.9506H8.00781V45.9506H7.00781ZM4.82812 45.9506H3.82812V46.9506H4.82812V45.9506ZM4.82812 33.2709V32.2709H3.82812V33.2709H4.82812ZM7.00781 33.2709H8.00781V32.2709H7.00781V33.2709ZM7.00781 38.767H6.00781V39.767H7.00781V38.767ZM12.832 38.767V39.767H13.832V38.767H12.832ZM12.832 33.2709V32.2709H11.832V33.2709H12.832ZM15 33.2709H16V32.2709H15V33.2709ZM15 44.9506H12.832V46.9506H15V44.9506ZM13.832 45.9506V40.5365H11.832V45.9506H13.832ZM12.832 39.5365H7.00781V41.5365H12.832V39.5365ZM6.00781 40.5365V45.9506H8.00781V40.5365H6.00781ZM7.00781 44.9506H4.82812V46.9506H7.00781V44.9506ZM5.82812 45.9506V33.2709H3.82812V45.9506H5.82812ZM4.82812 34.2709H7.00781V32.2709H4.82812V34.2709ZM6.00781 33.2709V38.767H8.00781V33.2709H6.00781ZM7.00781 39.767H12.832V37.767H7.00781V39.767ZM13.832 38.767V33.2709H11.832V38.767H13.832ZM12.832 34.2709H15V32.2709H12.832V34.2709ZM14 33.2709V45.9506H16V33.2709H14ZM26.3203 45.9506L25.4259 46.3978L25.7023 46.9506H26.3203V45.9506ZM26.0156 44.6147L27.0083 44.4936L26.7537 42.4061L25.2952 43.9211L26.0156 44.6147ZM19.3242 45.1303L18.6585 45.8765L18.6662 45.8833L19.3242 45.1303ZM19.6289 39.3647L20.2167 40.1737L20.2178 40.1728L19.6289 39.3647ZM25.9805 38.2631V39.2631H26.9805V38.2631H25.9805ZM25.3008 35.4623L24.5936 36.1694L24.5998 36.1755L25.3008 35.4623ZM20.5664 36.7865V37.7865H21.5664V36.7865H20.5664ZM18.3867 36.7865H17.3867V37.7865H18.3867V36.7865ZM19.0547 34.9584L18.2597 34.3517L18.2585 34.3533L19.0547 34.9584ZM20.8828 33.5522L20.4767 32.6383L20.4732 32.6399L20.8828 33.5522ZM26.8594 34.1381L26.1959 34.8863L26.1999 34.8898L26.8594 34.1381ZM28.1484 37.1498H29.1484V37.1376L29.1481 37.1254L28.1484 37.1498ZM28.5938 45.7631H29.5938V45.5564L29.5118 45.3667L28.5938 45.7631ZM28.5938 45.9506V46.9506H29.5938V45.9506H28.5938ZM25.9805 42.3998L26.8798 42.837L26.9805 42.63V42.3998H25.9805ZM25.9805 39.7982H26.9805V38.7982H25.9805V39.7982ZM27.2147 45.5034C27.174 45.4219 27.0859 45.1304 27.0083 44.4936L25.023 44.7357C25.1016 45.3801 25.2166 45.9793 25.4259 46.3978L27.2147 45.5034ZM25.2952 43.9211C24.4676 44.7808 23.5212 45.185 22.4062 45.185V47.185C24.0882 47.185 25.548 46.5423 26.736 45.3082L25.2952 43.9211ZM22.4062 45.185C21.3548 45.185 20.5744 44.8947 19.9822 44.3773L18.6662 45.8833C19.6834 46.7721 20.9577 47.185 22.4062 47.185V45.185ZM19.9899 44.3841C19.4098 43.8665 19.1289 43.2414 19.1289 42.435H17.1289C17.1289 43.8004 17.6449 44.9722 18.6585 45.8765L19.9899 44.3841ZM19.1289 42.435C19.1289 41.4092 19.4957 40.6976 20.2167 40.1737L19.0411 38.5556C17.7622 39.4849 17.1289 40.8201 17.1289 42.435H19.1289ZM20.2178 40.1728C20.9921 39.6086 22.1693 39.2631 23.8711 39.2631V37.2631C21.9323 37.2631 20.2813 37.6519 19.04 38.5565L20.2178 40.1728ZM23.8711 39.2631H25.9805V37.2631H23.8711V39.2631ZM26.9805 38.2631V37.267H24.9805V38.2631H26.9805ZM26.9805 37.267C26.9805 36.2966 26.6825 35.4181 26.0017 34.7491L24.5998 36.1755C24.8253 36.3971 24.9805 36.7218 24.9805 37.267H26.9805ZM26.0079 34.7552C25.3055 34.0529 24.3426 33.7826 23.2969 33.7826V35.7826C24.0167 35.7826 24.3898 35.9655 24.5937 36.1694L26.0079 34.7552ZM23.2969 33.7826C22.3489 33.7826 21.4799 34.0251 20.7535 34.5671L21.9496 36.17C22.2701 35.9308 22.698 35.7826 23.2969 35.7826V33.7826ZM20.7535 34.5671C20.0279 35.1086 19.5664 35.8578 19.5664 36.7865H21.5664C21.5664 36.6059 21.6283 36.4098 21.9496 36.17L20.7535 34.5671ZM20.5664 35.7865H18.3867V37.7865H20.5664V35.7865ZM19.3867 36.7865C19.3867 36.4066 19.5154 36.0049 19.8508 35.5635L18.2585 34.3533C17.7034 35.0838 17.3867 35.9008 17.3867 36.7865H19.3867ZM19.8496 35.5651C20.1898 35.1194 20.6596 34.7485 21.2924 34.4644L20.4732 32.6399C19.5748 33.0433 18.8258 33.6099 18.2597 34.3517L19.8496 35.5651ZM21.289 34.466C21.9235 34.1839 22.6312 34.0365 23.4258 34.0365V32.0365C22.3766 32.0365 21.389 32.2329 20.4767 32.6383L21.289 34.466ZM23.4258 34.0365C24.7219 34.0365 25.6026 34.3602 26.1959 34.8863L27.5229 33.3899C26.4599 32.4473 25.0516 32.0365 23.4258 32.0365V34.0365ZM26.1999 34.8898C26.7831 35.4015 27.1231 36.1223 27.1487 37.1742L29.1481 37.1254C29.1113 35.6148 28.5919 34.3278 27.5189 33.3864L26.1999 34.8898ZM27.1484 37.1498V42.9857H29.1484V37.1498H27.1484ZM27.1484 42.9857C27.1484 44.2185 27.3032 45.2969 27.6757 46.1595L29.5118 45.3667C29.2906 44.8543 29.1484 44.0811 29.1484 42.9857H27.1484ZM27.5938 45.7631V45.9506H29.5938V45.7631H27.5938ZM28.5938 44.9506H26.3203V46.9506H28.5938V44.9506ZM22.7227 45.2982C23.5841 45.2982 24.4002 45.0731 25.156 44.6371L24.1565 42.9047C23.6935 43.1718 23.2206 43.2982 22.7227 43.2982V45.2982ZM25.156 44.6371C25.916 44.1986 26.5084 43.6011 26.8798 42.837L25.0811 41.9626C24.9057 42.3235 24.6152 42.6401 24.1565 42.9047L25.156 44.6371ZM26.9805 42.3998V39.7982H24.9805V42.3998H26.9805ZM25.9805 38.7982H24.2812V40.7982H25.9805V38.7982ZM24.2812 38.7982C22.8883 38.7982 21.6796 38.9963 20.7878 39.5182C19.8134 40.0886 19.2969 41.0023 19.2969 42.1303H21.2969C21.2969 41.7036 21.4444 41.4513 21.7981 41.2443C22.2345 40.9889 23.0179 40.7982 24.2812 40.7982V38.7982ZM19.2969 42.1303C19.2969 43.0565 19.619 43.8862 20.3312 44.4879L21.6219 42.9601C21.4279 42.7962 21.2969 42.5635 21.2969 42.1303H19.2969ZM20.3312 44.4879C20.999 45.0521 21.8245 45.2982 22.7227 45.2982V43.2982C22.199 43.2982 21.8604 43.1616 21.6219 42.9601L20.3312 44.4879ZM37.8398 35.3334L37.2268 36.1235L37.2355 36.1301L37.8398 35.3334ZM34.0547 35.4037L33.4432 34.6124L33.4374 34.617L34.0547 35.4037ZM33.293 36.81V37.81H34.293V36.81H33.293ZM31.1367 36.81H30.1367V37.81H31.1367V36.81ZM39.4453 34.0092L38.8334 34.8002L38.8381 34.8038L39.4453 34.0092ZM38.707 39.435L38.3009 38.5212L35.9613 39.561L38.3863 40.3821L38.707 39.435ZM32.3555 45.1068L31.7502 45.9029L31.7576 45.9084L32.3555 45.1068ZM30.9375 42.2006V41.2006H29.9375V42.2006H30.9375ZM33.0938 42.2006H34.0938V41.2006H33.0938V42.2006ZM33.9141 43.7943L33.2826 44.5698L33.2887 44.5747L33.2948 44.5795L33.9141 43.7943ZM38.0977 40.8647L37.5024 41.6682L37.5108 41.6744L37.5192 41.6804L38.0977 40.8647ZM33.9492 40.3959H32.9492V41.3959H33.9492V40.3959ZM33.9492 38.5678V37.5678H32.9492V38.5678H33.9492ZM36.3047 38.5678V39.5678H36.3179L36.3311 39.5674L36.3047 38.5678ZM39.5195 36.7397C39.5195 35.8491 39.1591 35.079 38.4442 34.5367L37.2355 36.1301C37.4268 36.2753 37.5195 36.4427 37.5195 36.7397H39.5195ZM38.4528 34.5433C37.7689 34.0127 36.9053 33.8061 35.9766 33.8061V35.8061C36.6259 35.8061 37.0046 35.951 37.2268 36.1235L38.4528 34.5433ZM35.9766 33.8061C35.0299 33.8061 34.1633 34.056 33.4432 34.6124L34.6661 36.195C34.9773 35.9546 35.392 35.8061 35.9766 35.8061V33.8061ZM33.4374 34.617C32.7412 35.1632 32.293 35.902 32.293 36.81H34.293C34.293 36.6398 34.3526 36.4411 34.672 36.1905L33.4374 34.617ZM33.293 35.81H31.1367V37.81H33.293V35.81ZM32.1367 36.81C32.1367 36.0389 32.4369 35.4236 33.126 34.8981L31.9131 33.3078C30.7584 34.1885 30.1367 35.3779 30.1367 36.81H32.1367ZM33.126 34.8981C33.8419 34.352 34.7693 34.0482 35.9766 34.0482V32.0482C34.4182 32.0482 33.0409 32.4476 31.9131 33.3078L33.126 34.8981ZM35.9766 34.0482C37.3297 34.0482 38.2405 34.3415 38.8334 34.8001L40.0572 33.2182C38.9939 32.3957 37.5922 32.0482 35.9766 32.0482V34.0482ZM38.8381 34.8038C39.3837 35.2206 39.6875 35.813 39.6875 36.7279H41.6875C41.6875 35.2835 41.1632 34.0634 40.0525 33.2146L38.8381 34.8038ZM39.6875 36.7279C39.6875 37.0815 39.5857 37.4015 39.3608 37.7132L40.9829 38.8833C41.4455 38.2419 41.6875 37.515 41.6875 36.7279H39.6875ZM39.3608 37.7132C39.1377 38.0225 38.8011 38.2988 38.3009 38.5212L39.1132 40.3488C39.8786 40.0086 40.5185 39.5271 40.9829 38.8833L39.3608 37.7132ZM38.3863 40.3821C38.9845 40.5847 39.3488 40.8558 39.5682 41.1482C39.7838 41.4357 39.9219 41.8269 39.9219 42.3881H41.9219C41.9219 41.4805 41.6908 40.6451 41.1682 39.9482C40.6492 39.2563 39.9061 38.7852 39.0278 38.4878L38.3863 40.3821ZM39.9219 42.3881C39.9219 43.2511 39.6099 43.8728 38.9709 44.3562L40.1775 45.9512C41.3354 45.0753 41.9219 43.8532 41.9219 42.3881H39.9219ZM38.9709 44.3562C38.2958 44.8669 37.3306 45.1732 35.9766 45.1732V47.1732C37.6226 47.1732 39.0558 46.7999 40.1775 45.9512L38.9709 44.3562ZM35.9766 45.1732C34.6808 45.1732 33.6974 44.8603 32.9534 44.3053L31.7576 45.9084C32.9198 46.7753 34.3504 47.1732 35.9766 47.1732V45.1732ZM32.9607 44.3108C32.2717 43.7869 31.9375 43.1165 31.9375 42.2006H29.9375C29.9375 43.7221 30.5486 44.9893 31.7502 45.9029L32.9607 44.3108ZM30.9375 43.2006H33.0938V41.2006H30.9375V43.2006ZM32.0938 42.2006C32.0938 43.1637 32.54 43.965 33.2826 44.5698L34.5455 43.0189C34.1944 42.733 34.0938 42.4719 34.0938 42.2006H32.0938ZM33.2948 44.5795C34.0535 45.1779 34.9694 45.4506 35.9766 45.4506V43.4506C35.3431 43.4506 34.884 43.2858 34.5333 43.0092L33.2948 44.5795ZM35.9766 45.4506C36.9561 45.4506 37.8551 45.2232 38.5824 44.6749L37.3785 43.0779C37.0902 43.2952 36.6532 43.4506 35.9766 43.4506V45.4506ZM38.5824 44.6749C39.3281 44.1128 39.7422 43.327 39.7422 42.3881H37.7422C37.7422 42.6679 37.6484 42.8744 37.3785 43.0779L38.5824 44.6749ZM39.7422 42.3881C39.7422 41.4766 39.4571 40.6027 38.6761 40.0489L37.5192 41.6804C37.5976 41.7359 37.7422 41.8777 37.7422 42.3881H39.7422ZM38.6929 40.0611C38.0142 39.5584 37.093 39.3959 36.1172 39.3959V41.3959C36.9383 41.3959 37.3374 41.5459 37.5024 41.6682L38.6929 40.0611ZM36.1172 39.3959H33.9492V41.3959H36.1172V39.3959ZM34.9492 40.3959V38.5678H32.9492V40.3959H34.9492ZM33.9492 39.5678H36.3047V37.5678H33.9492V39.5678ZM36.3311 39.5674C37.1781 39.545 37.9898 39.3583 38.6024 38.8527C39.2545 38.3144 39.5195 37.552 39.5195 36.7397H37.5195C37.5195 37.107 37.4155 37.2391 37.3293 37.3102C37.2036 37.414 36.9078 37.5515 36.2782 37.5681L36.3311 39.5674ZM43.9336 45.9506H42.9336V46.9506H43.9336V45.9506ZM43.9336 33.2709V32.2709H42.9336V33.2709H43.9336ZM52.7578 34.1615L52.2064 34.9958L52.2149 35.0013L52.7578 34.1615ZM53.5898 38.3451L54.3899 38.9451L54.3946 38.9388L53.5898 38.3451ZM52.0312 39.4232L51.6895 38.4835L48.5361 39.6301L51.8028 40.3968L52.0312 39.4232ZM53.8711 40.4779L53.1206 41.1388L53.1261 41.1451L53.8711 40.4779ZM53.2852 45.0248L52.7018 44.2126L52.6983 44.2151L53.2852 45.0248ZM46.1016 40.3842V39.3842H45.1016V40.3842H46.1016ZM46.1016 44.2045H45.1016V45.2045H46.1016V44.2045ZM51.7148 43.7006L51.1193 42.8973L51.1126 42.9023L51.7148 43.7006ZM46.1016 38.6498H45.1016V39.6498H46.1016V38.6498ZM49.0664 35.0287L49.0867 34.0289L49.0766 34.0287H49.0664V35.0287ZM46.1016 35.0287V34.0287H45.1016V35.0287H46.1016ZM44.9336 45.9506V33.2709H42.9336V45.9506H44.9336ZM43.9336 34.2709H48.8789V32.2709H43.9336V34.2709ZM48.8789 34.2709C50.4728 34.2709 51.5401 34.5554 52.2065 34.9958L53.3092 33.3273C52.1787 32.5802 50.6601 32.2709 48.8789 32.2709V34.2709ZM52.2149 35.0013C52.8172 35.3907 53.1172 35.9269 53.1172 36.7514H55.1172C55.1172 35.2946 54.5109 34.1042 53.3008 33.3218L52.2149 35.0013ZM53.1172 36.7514C53.1172 37.1212 53.0113 37.4449 52.7851 37.7515L54.3946 38.9388C54.8715 38.2923 55.1172 37.5534 55.1172 36.7514H53.1172ZM52.7898 37.7451C52.5807 38.024 52.2399 38.2833 51.6895 38.4835L52.373 40.363C53.1976 40.0632 53.8958 39.6038 54.3898 38.9451L52.7898 37.7451ZM51.8028 40.3968C52.393 40.5353 52.8141 40.7908 53.1206 41.1388L54.6216 39.8171C54.0062 39.1182 53.2007 38.6706 52.2597 38.4497L51.8028 40.3968ZM53.1261 41.1451C53.4246 41.4784 53.5742 41.8634 53.5742 42.3529H55.5742C55.5742 41.3894 55.2551 40.5244 54.616 39.8108L53.1261 41.1451ZM53.5742 42.3529C53.5742 43.2325 53.2706 43.8041 52.7018 44.2126L53.8685 45.837C55.0185 45.0111 55.5742 43.8015 55.5742 42.3529H53.5742ZM52.6983 44.2151C52.0822 44.6617 51.1131 44.9506 49.6641 44.9506V46.9506C51.3401 46.9506 52.785 46.6223 53.872 45.8345L52.6983 44.2151ZM49.6641 44.9506H43.9336V46.9506H49.6641V44.9506ZM45.1016 40.3842V44.2045H47.1016V40.3842H45.1016ZM46.1016 45.2045H49.6875V43.2045H46.1016V45.2045ZM49.6875 45.2045C50.6861 45.2045 51.6197 45.025 52.3171 44.4989L51.1126 42.9023C50.9194 43.048 50.5014 43.2045 49.6875 43.2045V45.2045ZM52.3104 44.5039C53.0408 43.9624 53.3945 43.1791 53.3945 42.2826H51.3945C51.3945 42.6049 51.2951 42.7669 51.1193 42.8973L52.3104 44.5039ZM53.3945 42.2826C53.3945 41.3673 53.0361 40.5604 52.26 40.0321C51.5527 39.5507 50.6174 39.3842 49.6055 39.3842V41.3842C50.4529 41.3842 50.9122 41.5341 51.1346 41.6855C51.2881 41.79 51.3945 41.9323 51.3945 42.2826H53.3945ZM49.6055 39.3842H46.1016V41.3842H49.6055V39.3842ZM46.1016 39.6498H48.9023V37.6498H46.1016V39.6498ZM48.9023 39.6498C49.9827 39.6498 50.9568 39.4977 51.6922 39.0678C52.5103 38.5895 52.9492 37.8135 52.9492 36.8686H50.9492C50.9492 37.1111 50.8803 37.2257 50.6828 37.3412C50.4026 37.505 49.8533 37.6498 48.9023 37.6498V39.6498ZM52.9492 36.8686C52.9492 35.9506 52.549 35.1744 51.7665 34.675C51.0583 34.223 50.1196 34.0499 49.0867 34.0289L49.0461 36.0285C49.9351 36.0466 50.4378 36.1997 50.6905 36.3609C50.869 36.4748 50.9492 36.5991 50.9492 36.8686H52.9492ZM49.0664 34.0287H46.1016V36.0287H49.0664V34.0287ZM45.1016 35.0287V38.6498H47.1016V35.0287H45.1016ZM65.2734 45.9506L64.379 46.3978L64.6554 46.9506H65.2734V45.9506ZM64.9688 44.6147L65.9614 44.4936L65.7068 42.4061L64.2483 43.9211L64.9688 44.6147ZM58.2773 45.1303L57.6116 45.8765L57.6194 45.8833L58.2773 45.1303ZM58.582 39.3647L59.1698 40.1737L59.1709 40.1728L58.582 39.3647ZM64.9336 38.2631V39.2631H65.9336V38.2631H64.9336ZM64.2539 35.4623L63.5468 36.1694L63.553 36.1755L64.2539 35.4623ZM59.5195 36.7865V37.7865H60.5195V36.7865H59.5195ZM57.3398 36.7865H56.3398V37.7865H57.3398V36.7865ZM58.0078 34.9584L57.2129 34.3517L57.2117 34.3533L58.0078 34.9584ZM59.8359 33.5522L59.4298 32.6383L59.4263 32.6399L59.8359 33.5522ZM65.8125 34.1381L65.149 34.8863L65.153 34.8898L65.8125 34.1381ZM67.1016 37.1498H68.1016V37.1376L68.1013 37.1254L67.1016 37.1498ZM67.5469 45.7631H68.5469V45.5564L68.4649 45.3667L67.5469 45.7631ZM67.5469 45.9506V46.9506H68.5469V45.9506H67.5469ZM64.9336 42.3998L65.833 42.837L65.9336 42.63V42.3998H64.9336ZM64.9336 39.7982H65.9336V38.7982H64.9336V39.7982ZM66.1679 45.5034C66.1271 45.4219 66.0391 45.1304 65.9614 44.4936L63.9761 44.7357C64.0547 45.3801 64.1697 45.9793 64.379 46.3978L66.1679 45.5034ZM64.2483 43.9211C63.4207 44.7808 62.4743 45.185 61.3594 45.185V47.185C63.0413 47.185 64.5011 46.5423 65.6892 45.3082L64.2483 43.9211ZM61.3594 45.185C60.3079 45.185 59.5275 44.8947 58.9353 44.3773L57.6194 45.8833C58.6365 46.7721 59.9108 47.185 61.3594 47.185V45.185ZM58.9431 44.3841C58.3629 43.8665 58.082 43.2414 58.082 42.435H56.082C56.082 43.8004 56.598 44.9722 57.6116 45.8765L58.9431 44.3841ZM58.082 42.435C58.082 41.4092 58.4488 40.6976 59.1698 40.1737L57.9942 38.5556C56.7153 39.4849 56.082 40.8201 56.082 42.435H58.082ZM59.1709 40.1728C59.9453 39.6086 61.1224 39.2631 62.8242 39.2631V37.2631C60.8854 37.2631 59.2344 37.6519 57.9931 38.5565L59.1709 40.1728ZM62.8242 39.2631H64.9336V37.2631H62.8242V39.2631ZM65.9336 38.2631V37.267H63.9336V38.2631H65.9336ZM65.9336 37.267C65.9336 36.2966 65.6356 35.4181 64.9548 34.7491L63.553 36.1755C63.7785 36.3971 63.9336 36.7218 63.9336 37.267H65.9336ZM64.961 34.7552C64.2587 34.0529 63.2958 33.7826 62.25 33.7826V35.7826C62.9699 35.7826 63.3429 35.9655 63.5468 36.1694L64.961 34.7552ZM62.25 33.7826C61.302 33.7826 60.433 34.0251 59.7066 34.5671L60.9028 36.17C61.2233 35.9308 61.6511 35.7826 62.25 35.7826V33.7826ZM59.7066 34.5671C58.981 35.1086 58.5195 35.8578 58.5195 36.7865H60.5195C60.5195 36.6059 60.5815 36.4098 60.9028 36.17L59.7066 34.5671ZM59.5195 35.7865H57.3398V37.7865H59.5195V35.7865ZM58.3398 36.7865C58.3398 36.4066 58.4685 36.0049 58.804 35.5635L57.2117 34.3533C56.6565 35.0838 56.3398 35.9008 56.3398 36.7865H58.3398ZM58.8028 35.5651C59.1429 35.1194 59.6127 34.7485 60.2455 34.4644L59.4263 32.6399C58.5279 33.0433 57.779 33.6099 57.2129 34.3517L58.8028 35.5651ZM60.2421 34.466C60.8766 34.1839 61.5843 34.0365 62.3789 34.0365V32.0365C61.3297 32.0365 60.3421 32.2329 59.4298 32.6383L60.2421 34.466ZM62.3789 34.0365C63.675 34.0365 64.5558 34.3602 65.149 34.8863L66.476 33.3899C65.413 32.4473 64.0047 32.0365 62.3789 32.0365V34.0365ZM65.153 34.8898C65.7363 35.4015 66.0762 36.1223 66.1019 37.1742L68.1013 37.1254C68.0644 35.6148 67.545 34.3278 66.472 33.3864L65.153 34.8898ZM66.1016 37.1498V42.9857H68.1016V37.1498H66.1016ZM66.1016 42.9857C66.1016 44.2185 66.2563 45.2969 66.6288 46.1595L68.4649 45.3667C68.2437 44.8543 68.1016 44.0811 68.1016 42.9857H66.1016ZM66.5469 45.7631V45.9506H68.5469V45.7631H66.5469ZM67.5469 44.9506H65.2734V46.9506H67.5469V44.9506ZM61.6758 45.2982C62.5372 45.2982 63.3533 45.0731 64.1091 44.6371L63.1097 42.9047C62.6467 43.1718 62.1737 43.2982 61.6758 43.2982V45.2982ZM64.1091 44.6371C64.8692 44.1986 65.4615 43.6011 65.833 42.837L64.0342 41.9626C63.8588 42.3235 63.5683 42.6401 63.1097 42.9047L64.1091 44.6371ZM65.9336 42.3998V39.7982H63.9336V42.3998H65.9336ZM64.9336 38.7982H63.2344V40.7982H64.9336V38.7982ZM63.2344 38.7982C61.8414 38.7982 60.6327 38.9963 59.741 39.5182C58.7665 40.0886 58.25 41.0023 58.25 42.1303H60.25C60.25 41.7036 60.3975 41.4513 60.7512 41.2443C61.1876 40.9889 61.9711 40.7982 63.2344 40.7982V38.7982ZM58.25 42.1303C58.25 43.0565 58.5721 43.8862 59.2843 44.4879L60.575 42.9601C60.381 42.7962 60.25 42.5635 60.25 42.1303H58.25ZM59.2843 44.4879C59.9521 45.0521 60.7776 45.2982 61.6758 45.2982V43.2982C61.1521 43.2982 60.8135 43.1616 60.575 42.9601L59.2843 44.4879ZM80.8594 45.9506V46.9506H81.8594V45.9506H80.8594ZM78.6914 45.9506H77.6914V46.9506H78.6914V45.9506ZM78.6914 40.5365H79.6914V39.5365H78.6914V40.5365ZM72.8672 40.5365V39.5365H71.8672V40.5365H72.8672ZM72.8672 45.9506V46.9506H73.8672V45.9506H72.8672ZM70.6875 45.9506H69.6875V46.9506H70.6875V45.9506ZM70.6875 33.2709V32.2709H69.6875V33.2709H70.6875ZM72.8672 33.2709H73.8672V32.2709H72.8672V33.2709ZM72.8672 38.767H71.8672V39.767H72.8672V38.767ZM78.6914 38.767V39.767H79.6914V38.767H78.6914ZM78.6914 33.2709V32.2709H77.6914V33.2709H78.6914ZM80.8594 33.2709H81.8594V32.2709H80.8594V33.2709ZM80.8594 44.9506H78.6914V46.9506H80.8594V44.9506ZM79.6914 45.9506V40.5365H77.6914V45.9506H79.6914ZM78.6914 39.5365H72.8672V41.5365H78.6914V39.5365ZM71.8672 40.5365V45.9506H73.8672V40.5365H71.8672ZM72.8672 44.9506H70.6875V46.9506H72.8672V44.9506ZM71.6875 45.9506V33.2709H69.6875V45.9506H71.6875ZM70.6875 34.2709H72.8672V32.2709H70.6875V34.2709ZM71.8672 33.2709V38.767H73.8672V33.2709H71.8672ZM72.8672 39.767H78.6914V37.767H72.8672V39.767ZM79.6914 38.767V33.2709H77.6914V38.767H79.6914ZM78.6914 34.2709H80.8594V32.2709H78.6914V34.2709ZM79.8594 33.2709V45.9506H81.8594V33.2709H79.8594ZM92.5547 33.2709V32.2709H92.0035L91.7092 32.7369L92.5547 33.2709ZM94.7227 33.2709H95.7227V32.2709H94.7227V33.2709ZM94.7227 45.9506V46.9506H95.7227V45.9506H94.7227ZM92.5547 45.9506H91.5547V46.9506H92.5547V45.9506ZM92.5547 36.7045H93.5547V33.2525L91.7095 36.17L92.5547 36.7045ZM86.707 45.9506V46.9506H87.2578L87.5522 46.4851L86.707 45.9506ZM84.5391 45.9506H83.5391V46.9506H84.5391V45.9506ZM84.5391 33.2709V32.2709H83.5391V33.2709H84.5391ZM86.707 33.2709H87.707V32.2709H86.707V33.2709ZM86.707 42.5287H85.707V45.9844L87.5525 43.0628L86.707 42.5287ZM92.5547 34.2709H94.7227V32.2709H92.5547V34.2709ZM93.7227 33.2709V45.9506H95.7227V33.2709H93.7227ZM94.7227 44.9506H92.5547V46.9506H94.7227V44.9506ZM93.5547 45.9506V36.7045H91.5547V45.9506H93.5547ZM91.7095 36.17L85.8619 45.4161L87.5522 46.4851L93.3998 37.239L91.7095 36.17ZM86.707 44.9506H84.5391V46.9506H86.707V44.9506ZM85.5391 45.9506V33.2709H83.5391V45.9506H85.5391ZM84.5391 34.2709H86.707V32.2709H84.5391V34.2709ZM85.707 33.2709V42.5287H87.707V33.2709H85.707ZM87.5525 43.0628L93.4002 33.8049L91.7092 32.7369L85.8616 41.9947L87.5525 43.0628ZM99.2695 44.4975L98.5452 45.1869L98.5475 45.1894L99.2695 44.4975ZM98.3672 36.2006L97.4686 35.7619L97.4671 35.7648L98.3672 36.2006ZM100.383 33.8803L100.925 34.7205L100.927 34.7192L100.383 33.8803ZM108.41 40.2318V41.2318H109.41V40.2318H108.41ZM99.8203 40.2318V39.2318H98.795L98.8206 40.2568L99.8203 40.2318ZM100.91 43.267L100.166 43.9356L100.174 43.9434L100.91 43.267ZM106.922 42.7045L107.536 41.9155L106.744 41.2988L106.131 42.0931L106.922 42.7045ZM108.246 43.7357L109.084 44.2812L109.585 43.5112L108.861 42.9468L108.246 43.7357ZM100.992 35.7787L101.721 36.463L101.726 36.4585L100.992 35.7787ZM99.8906 38.4506L98.898 38.3291L98.7607 39.4506H99.8906V38.4506ZM106.242 38.4506V39.4506H107.242V38.4506H106.242ZM106.242 38.2865H107.242V38.2582L107.241 38.2299L106.242 38.2865ZM105.352 35.7318L104.598 36.389L104.602 36.3938L105.352 35.7318ZM103.465 45.185C101.988 45.185 100.861 44.7124 99.9915 43.8056L98.5475 45.1894C99.8347 46.5325 101.505 47.185 103.465 47.185V45.185ZM99.9939 43.8081C99.1284 42.8986 98.6523 41.6531 98.6523 39.9623H96.6523C96.6523 42.0528 97.2544 43.8307 98.5452 45.1869L99.9939 43.8081ZM98.6523 39.9623V39.5639H96.6523V39.9623H98.6523ZM98.6523 39.5639C98.6523 38.4343 98.8657 37.4658 99.2673 36.6363L97.4671 35.7648C96.9156 36.9041 96.6523 38.1778 96.6523 39.5639H98.6523ZM99.2658 36.6393C99.6768 35.7974 100.231 35.1685 100.925 34.7205L99.8405 33.0401C98.8158 33.7015 98.0263 34.6194 97.4686 35.7619L99.2658 36.6393ZM100.927 34.7192C101.637 34.259 102.386 34.0365 103.195 34.0365V32.0365C101.989 32.0365 100.863 32.3766 99.8386 33.0413L100.927 34.7192ZM103.195 34.0365C104.602 34.0365 105.582 34.4868 106.274 35.3094L107.804 34.0215C106.668 32.6722 105.086 32.0365 103.195 32.0365V34.0365ZM106.274 35.3094C106.983 36.1518 107.41 37.4431 107.41 39.3295H109.41C109.41 37.169 108.923 35.351 107.804 34.0215L106.274 35.3094ZM107.41 39.3295V40.2318H109.41V39.3295H107.41ZM108.41 39.2318H99.8203V41.2318H108.41V39.2318ZM98.8206 40.2568C98.8566 41.6946 99.2812 42.9508 100.166 43.9355L101.654 42.5984C101.149 42.0364 100.847 41.269 100.82 40.2068L98.8206 40.2568ZM100.174 43.9434C101.074 44.9238 102.236 45.4154 103.582 45.4154V43.4154C102.772 43.4154 102.153 43.1415 101.647 42.5906L100.174 43.9434ZM103.582 45.4154C104.483 45.4154 105.316 45.231 106.034 44.8086L105.02 43.0848C104.676 43.2874 104.212 43.4154 103.582 43.4154V45.4154ZM106.034 44.8086C106.682 44.4279 107.241 43.9266 107.713 43.3159L106.131 42.0931C105.806 42.5137 105.436 42.8405 105.02 43.0848L106.034 44.8086ZM106.307 43.4935L107.632 44.5247L108.861 42.9468L107.536 41.9155L106.307 43.4935ZM107.408 43.1903C106.549 44.5103 105.288 45.185 103.465 45.185V47.185C105.892 47.185 107.818 46.2268 109.084 44.2812L107.408 43.1903ZM103.195 33.8178C102.042 33.8178 101.042 34.2537 100.259 35.099L101.726 36.4585C102.13 36.0224 102.598 35.8178 103.195 35.8178V33.8178ZM100.263 35.0945C99.4823 35.9264 99.056 37.0394 98.898 38.3291L100.883 38.5721C101.007 37.5649 101.315 36.8966 101.721 36.463L100.263 35.0945ZM99.8906 39.4506H106.242V37.4506H99.8906V39.4506ZM107.242 38.4506V38.2865H105.242V38.4506H107.242ZM107.241 38.2299C107.17 36.9873 106.828 35.8928 106.101 35.0699L104.602 36.3938C104.938 36.774 105.189 37.3826 105.244 38.3432L107.241 38.2299ZM106.105 35.0747C105.36 34.2197 104.351 33.8178 103.195 33.8178V35.8178C103.852 35.8178 104.281 36.0253 104.598 36.389L106.105 35.0747Z" fill="black"/>
</g>
<defs>
<filter id="filter0_d_2_11" x="0.828125" y="0.888092" width="111.582" height="53.2969" filterUnits="userSpaceOnUse" color-interpolation-filters="sRGB">
<feFlood flood-opacity="0" result="BackgroundImageFix"/>
<feColorMatrix in="SourceAlpha" type="matrix" values="0 0 0 0 0 0 0 0 0 0 0 0 0 0 0 0 0 0 127 0" result="hardAlpha"/>
<feOffset dy="4"/>
<feGaussianBlur stdDeviation="2"/>
<feComposite in2="hardAlpha" operator="out"/>
<feColorMatrix type="matrix" values="0 0 0 0 0 0 0 0 0 0 0 0 0 0 0 0 0 0 0.25 0"/>
<feBlend mode="normal" in2="BackgroundImageFix" result="effect1_dropShadow_2_11"/>
<feBlend mode="normal" in="SourceGraphic" in2="effect1_dropShadow_2_11" result="shape"/>
</filter>
</defs>
</svg>
